<svg xmlns="http://www.w3.org/2000/svg" width="430" height="430" style="width:100%;height:100%;transform:translate3d(0,0,0);content-visibility:visible" viewBox="0 0 430 430"><defs><clipPath id="d"><path d="M0 0h430v430H0z"/></clipPath><clipPath id="j"><path d="M0 0h430v430H0z"/></clipPath><clipPath id="i"><path d="M0 0h430v430H0z"/></clipPath><clipPath id="g"><path d="M0 0h430v430H0z"/></clipPath><clipPath id="e"><path d="M0 0h430v430H0z"/></clipPath><path id="a" style="display:none"/><path id="b" style="display:none"/><path id="c" style="display:none"/><mask id="k" mask-type="alpha"><use xmlns:a0="http://www.w3.org/1999/xlink" a0:href="#a"/></mask><mask id="h" mask-type="alpha"><use xmlns:a1="http://www.w3.org/1999/xlink" a1:href="#b"/></mask><mask id="f" mask-type="alpha"><use xmlns:a2="http://www.w3.org/1999/xlink" a2:href="#c"/></mask></defs><g clip-path="url(#d)"><g clip-path="url(#e)" style="display:none"><path class="secondary" style="display:none"/><path class="secondary" style="mix-blend-mode:multiply;display:none"/><g style="display:none"><path class="primary"/><path class="primary" style="mix-blend-mode:multiply"/></g><g mask="url(#f)" style="display:none"><path class="primary"/><path class="primary" style="mix-blend-mode:multiply"/></g><g style="display:none"><path class="primary"/><path class="primary" style="mix-blend-mode:multiply"/></g></g><g clip-path="url(#g)" style="display:none"><path class="secondary" style="display:none"/><path class="secondary" style="mix-blend-mode:multiply;display:none"/><g style="display:none"><path class="primary"/><path class="primary" style="mix-blend-mode:multiply"/></g><g mask="url(#h)" style="display:none"><path class="primary"/><path class="primary" style="mix-blend-mode:multiply"/></g><g style="display:none"><path class="primary"/><path class="primary" style="mix-blend-mode:multiply"/></g></g><g clip-path="url(#i)" style="display:block"><path fill="#EBE6EE" d="M135 155h-270c-11.046 0-20-8.954-20-20v-270c0-11.046 8.954-20 20-20h264.5s13.439-.404 20 5c5.404 4.45 5.5 16 5.5 16v269c0 11.046-8.954 20-20 20" class="secondary" style="display:block" transform="translate(210 220)"/><g opacity=".5"><path fill="#EBE6EE" d="M-115 100v-255h-20c-11.046 0-20 8.954-20 20v270c0 11.046 8.954 20 20 20h270c11.046 0 20-8.954 20-20v-20h-255c-8.284 0-15-6.716-15-15" class="secondary" opacity="1" style="mix-blend-mode:multiply;display:block" transform="translate(210 220)"/></g><g fill="#FFC638" style="display:block"><path d="M236.9 59.762c-2.622.09-3.873 3.265-2.018 5.12l40.37 40.37L157.823 222.68c-3.905 3.905-3.905 10.238 0 14.143l35.356 35.355c3.905 3.905 10.237 3.905 14.142 0l117.428-117.429 40.37 40.37c1.855 1.855 5.029.604 5.119-2.018l4.652-134.888a3 3 0 0 0-3.102-3.102z" class="primary"/><path fill-opacity=".5" d="m-27.554-95.042 134.888-4.652a3 3 0 0 1 2.225.877L-88.953 99.695l-17.677-17.677a9.97 9.97 0 0 1-2.929-7.052 9.97 9.97 0 0 1 2.929-7.09L10.798-49.553l-40.37-40.37c-1.391-1.391-1.035-3.524.336-4.542a2.97 2.97 0 0 1 1.682-.577" class="primary" style="mix-blend-mode:multiply" transform="translate(264.393 155.108)"/></g></g><g clip-path="url(#j)" style="display:none"><g style="display:none"><path class="secondary"/><path class="secondary" style="mix-blend-mode:multiply"/></g><g mask="url(#k)" style="display:none"><path class="primary"/><path class="primary" style="mix-blend-mode:multiply"/></g><g style="display:none"><path class="primary"/><path class="primary" style="mix-blend-mode:multiply"/></g></g></g></svg>